<svg version="1.1" id="Layer_1" xmlns="http://www.w3.org/2000/svg" xmlns:xlink="http://www.w3.org/1999/xlink" x="0px" y="0px"
	 width="100%" viewBox="0 0 592 592" enable-background="new 0 0 592 592" xml:space="preserve">
<path fill="#000000" opacity="1.000000" stroke="none" 
	d="
M191.094147,343.059021 
	C191.099503,341.738556 190.925232,340.858398 191.131592,340.079071 
	C193.768173,330.122559 188.542587,324.081146 181.255875,318.400665 
	C172.726303,311.751251 164.860382,304.255768 156.596207,297.257629 
	C153.968735,295.032654 152.801712,292.561340 152.858566,289.065826 
	C153.048248,277.402863 152.910141,265.734894 153.036026,254.070312 
	C153.069763,250.944794 152.104919,248.914734 149.327072,247.128479 
	C142.891586,242.990204 140.173355,234.912216 142.313629,227.862747 
	C144.562836,220.454514 150.632645,215.656998 158.063858,215.413925 
	C165.797485,215.160965 172.502960,219.409882 175.046158,226.174713 
	C177.832718,233.586914 175.931000,241.754028 169.457413,246.317459 
	C165.936966,248.799149 164.976791,251.476242 165.069946,255.479233 
	C165.298645,265.306854 165.220444,275.144379 165.098877,284.975830 
	C165.060959,288.042511 165.933304,290.333862 168.329376,292.365448 
	C176.842285,299.583435 185.293259,306.879333 193.600479,314.332092 
	C196.067032,316.544922 197.813629,316.760193 200.360168,314.474976 
	C209.160675,306.577515 218.094727,298.827118 227.062286,291.118896 
	C229.204102,289.277893 229.681778,287.113495 229.660553,284.472473 
	C229.581589,274.640198 229.482971,264.803040 229.723404,254.975830 
	C229.815018,251.231400 228.618546,248.999374 225.473206,246.825363 
	C216.873672,240.881454 215.543091,230.252548 221.874359,221.814087 
	C227.340057,214.529266 238.569656,213.204773 246.079788,218.959152 
	C255.397369,226.098419 255.230743,240.167389 245.347992,246.703033 
	C241.870346,249.002869 240.975845,251.479462 241.039963,255.283035 
	C241.228180,266.446198 241.012985,277.616028 241.186539,288.779633 
	C241.243805,292.462646 239.926071,294.952576 237.150162,297.338776 
	C226.667664,306.349579 216.417709,315.630310 206.006378,324.724945 
	C203.938278,326.531494 203.110291,328.558044 203.140305,331.267761 
	C203.245575,340.766296 203.262024,350.267151 203.167099,359.765686 
	C203.139206,362.555420 204.056381,364.290833 206.524750,365.824738 
	C213.188263,369.965698 216.015366,377.983429 213.844055,385.406097 
	C211.697998,392.742432 204.643646,398.146454 197.129669,398.210327 
	C189.595932,398.274323 182.835876,393.058563 180.532776,385.404938 
	C178.275391,377.903229 180.973434,370.130676 187.852158,365.902588 
	C190.899658,364.029388 191.723724,361.911865 191.449615,358.527863 
	C191.046951,353.556915 191.184219,348.542236 191.094147,343.059021 
M230.859756,227.487061 
	C228.485199,230.308182 227.693436,233.369461 229.822998,236.636169 
	C231.210541,238.764648 233.384659,239.630371 235.881439,239.279938 
	C238.524323,238.908997 240.660110,237.591980 241.464676,234.922928 
	C242.283081,232.207932 241.955368,229.532181 239.664642,227.606140 
	C237.131287,225.476089 234.312637,225.051193 230.859756,227.487061 
M154.842224,237.849380 
	C158.127274,239.559311 161.310776,239.653107 163.886948,236.693863 
	C165.756851,234.545914 166.358978,232.031631 164.702271,229.338043 
	C162.690033,226.066437 158.736877,224.856628 155.657196,226.642792 
	C151.885620,228.830215 151.372681,232.713226 154.842224,237.849380 
M200.385315,374.835663 
	C196.757904,373.389160 193.431885,373.624664 191.403397,377.320007 
	C189.720505,380.385773 190.082199,383.674194 193.079193,385.693451 
	C196.022354,387.676453 199.517914,387.879456 202.018524,384.847382 
	C204.746475,381.539642 204.321243,378.153473 200.385315,374.835663 
z"/>
<path fill="#000000" opacity="1.000000" stroke="none" 
	d="
M497.615845,347.398132 
	C483.586395,376.095184 447.158173,380.862793 427.044006,356.799530 
	C418.081085,346.076843 409.702637,334.867157 400.830444,324.066193 
	C398.079010,320.716614 397.655945,317.826050 400.139496,314.295105 
	C402.017853,311.624512 402.596649,308.153137 404.917236,305.822601 
	C406.972412,305.971313 407.492920,307.565857 408.381592,308.678650 
	C418.558838,321.422668 428.655365,334.231537 438.889587,346.929474 
	C446.762665,356.697845 460.232666,359.557251 471.301147,354.009399 
	C481.832733,348.730652 487.969849,335.622986 485.312927,324.083038 
	C482.459564,311.689789 472.076324,303.436584 459.493347,303.116364 
	C448.288605,302.831268 440.649750,308.501221 434.590057,317.138245 
	C433.270233,319.019379 432.056732,320.975098 430.419525,323.466675 
	C426.735962,320.154785 424.108978,316.599182 421.464508,313.078766 
	C420.366272,311.616699 421.218658,310.306305 422.041901,308.970459 
	C431.729279,293.251221 449.366119,285.519196 467.970764,288.877045 
	C484.165649,291.799988 497.291779,305.217773 500.691772,322.640961 
	C502.328247,331.026886 501.119812,339.196167 497.615845,347.398132 
z"/>
<path fill="#000000" opacity="1.000000" stroke="none" 
	d="
M69.046082,284.062927 
	C67.722397,284.050659 66.890030,284.039185 66.057632,284.032562 
	C59.058384,283.976776 56.755848,280.737640 58.813961,274.043823 
	C59.645081,271.340668 61.785252,271.782806 63.693989,271.769623 
	C71.285973,271.717102 78.878525,271.747986 86.826210,270.713257 
	C83.184448,267.695282 79.535110,264.686371 75.903015,261.656830 
	C72.068390,258.458344 68.570381,254.714874 64.354836,252.145432 
	C56.772697,247.523941 57.574955,240.883148 58.525612,233.845474 
	C61.233765,233.100006 62.387241,235.086777 63.816612,236.270874 
	C71.249718,242.428345 78.722176,248.545837 85.959068,254.928772 
	C88.618484,257.274414 90.579758,257.168274 93.288383,255.148071 
	C101.823799,248.781937 110.498680,242.602234 119.144592,236.385193 
	C121.363503,234.789627 123.299675,232.639420 126.181602,232.092590 
	C129.076752,240.768158 127.705620,245.184082 121.089035,249.845169 
	C113.915161,254.898834 106.809631,260.049500 99.480911,265.296295 
	C102.582573,269.470306 105.753113,272.157593 110.925407,271.769440 
	C114.898438,271.471344 118.917099,271.840790 122.906532,271.684814 
	C126.657715,271.538147 127.457329,273.631744 127.218536,276.733002 
	C126.979118,279.842346 128.339005,283.901855 122.978386,284.028046 
	C120.814949,284.079010 118.650383,284.104584 116.486343,284.103607 
	C100.836685,284.096558 85.187035,284.079681 69.046082,284.062927 
z"/>
<path fill="#000000" opacity="1.000000" stroke="none" 
	d="
M291.848450,307.849243 
	C290.682770,307.545746 289.861084,307.389282 289.034424,307.356293 
	C282.583679,307.098816 282.793427,307.099731 282.589661,300.452179 
	C282.462952,296.317841 283.930725,294.492950 288.049927,294.973816 
	C292.547211,295.498810 294.018188,293.311340 293.637024,289.097778 
	C293.412720,286.618195 293.826111,284.073425 293.527618,281.609497 
	C292.846741,275.988983 296.351044,275.966583 300.363861,275.867401 
	C304.430023,275.766876 306.764832,276.782532 306.338440,281.438660 
	C306.066223,284.410950 306.475952,287.440460 306.303864,290.428436 
	C306.099548,293.975739 307.751068,295.145142 311.074768,295.065552 
	C316.236847,294.941925 321.407501,295.155365 326.568298,295.008148 
	C331.818237,294.858398 331.182770,298.422180 331.293701,301.802185 
	C331.406952,305.250702 330.886261,307.656708 326.526245,307.445465 
	C321.372650,307.195831 316.194641,307.486908 311.035004,307.312988 
	C307.567352,307.196106 306.278412,308.651825 306.315399,312.038513 
	C306.415405,321.201233 306.283173,330.366272 306.346161,339.529694 
	C306.422211,350.601227 314.124908,355.832825 324.091949,350.910553 
	C329.500214,348.239624 330.116608,351.402466 331.864288,354.828705 
	C333.889984,358.799988 332.922272,360.762238 328.877686,362.353516 
	C316.530731,367.211151 304.406982,365.129517 297.759430,356.746796 
	C293.545410,351.432831 293.064545,345.075470 292.976257,338.750122 
	C292.857727,330.259735 293.189240,321.762726 293.350220,313.269012 
	C293.385132,311.425507 293.483673,309.590973 291.848450,307.849243 
z"/>
<path fill="#000000" opacity="1.000000" stroke="none" 
	d="
M66.497322,332.693024 
	C55.804344,325.402496 54.901226,307.892090 63.007320,297.420319 
	C64.845535,295.045624 66.783417,293.340332 69.501259,296.092712 
	C71.615646,298.233978 76.606705,299.214386 72.657509,304.020386 
	C69.678459,307.645752 68.730835,312.013641 69.288910,316.716675 
	C69.733818,320.466095 71.636856,322.952789 75.337875,323.716644 
	C79.056442,324.484131 81.994553,323.021698 83.581993,319.603546 
	C86.105087,314.170807 88.076103,308.466125 90.817406,303.153412 
	C97.331871,290.528229 116.001144,289.682129 123.583572,301.708160 
	C129.477097,311.055573 129.117996,320.957153 124.824463,330.854248 
	C124.101891,332.519897 123.083496,334.093109 121.999619,335.559631 
	C118.280350,340.591797 116.916336,340.584076 112.080643,336.572449 
	C109.236786,334.213226 109.194839,332.378113 111.638474,329.609711 
	C116.072083,324.586884 117.921913,318.710510 115.978851,311.994354 
	C114.928146,308.362579 113.082794,305.533203 108.920341,305.309204 
	C104.793808,305.087128 101.892410,307.007965 100.348389,310.855408 
	C98.613525,315.178375 97.221947,319.665802 95.169350,323.829437 
	C89.260513,335.815338 78.739319,339.081665 66.497322,332.693024 
z"/>
<path fill="#000000" opacity="1.000000" stroke="none" 
	d="
M358.986450,317.191650 
	C356.879700,320.876740 357.031738,324.591949 357.012695,328.239502 
	C356.960480,338.232178 356.818054,348.230560 357.091888,358.216278 
	C357.236725,363.496307 354.475494,364.190887 350.213776,364.091736 
	C346.049957,363.994904 342.798065,363.956940 342.877655,358.141144 
	C343.135193,339.324463 343.056427,320.501129 342.888611,301.682281 
	C342.849152,297.259460 343.752533,294.797119 348.875336,294.937103 
	C355.344696,295.113892 355.828308,295.258240 356.174438,301.373383 
	C356.229919,302.353699 356.314301,303.332367 356.434021,304.983582 
	C358.047394,303.366913 359.275696,302.140686 360.499054,300.909546 
	C367.881256,293.480194 376.720215,292.474762 386.377686,295.015686 
	C388.757019,295.641693 389.392578,297.255280 389.305786,299.529846 
	C389.053223,306.148926 386.119873,308.555573 379.611664,307.358337 
	C370.150421,305.617798 364.211700,308.375610 358.986450,317.191650 
z"/>
<path fill="#000000" opacity="1.000000" stroke="none" 
	d="
M258.751831,354.907104 
	C258.755829,336.615753 258.949554,318.807037 258.654999,301.006409 
	C258.562988,295.444092 261.167206,294.857941 265.655426,294.848236 
	C270.140045,294.838593 272.330933,295.906403 272.281708,300.969818 
	C272.100494,319.605194 272.287720,338.244080 272.307526,356.881622 
	C272.314606,363.560059 271.909058,363.922821 265.199890,363.890076 
	C259.065430,363.860138 258.787567,363.558533 258.754883,356.890533 
	C258.752441,356.391327 258.753601,355.892090 258.751831,354.907104 
z"/>
<path fill="#000000" opacity="1.000000" stroke="none" 
	d="
M391.122681,367.305847 
	C385.794189,369.848969 380.631866,371.720490 375.069397,372.085114 
	C369.757019,372.433350 368.853638,371.163513 371.120117,366.547638 
	C373.803162,361.083466 376.058380,355.765442 383.279144,353.890137 
	C389.098755,352.378754 392.789337,346.874664 396.093719,341.774719 
	C397.165131,340.121124 398.020905,338.282013 400.142517,337.080963 
	C403.908905,339.614563 406.228577,343.517944 409.235840,346.724548 
	C410.567871,348.144836 409.413422,349.481903 408.601288,350.754974 
	C404.222931,357.618195 398.611511,363.184387 391.122681,367.305847 
z"/>
<path fill="#000000" opacity="1.000000" stroke="none" 
	d="
M256.975861,276.138947 
	C259.575714,269.092957 265.707031,266.566132 270.603088,270.244568 
	C273.317932,272.284241 274.720306,275.085358 273.970428,278.527130 
	C273.178192,282.163605 270.742004,284.313232 267.079498,284.792450 
	C263.589111,285.249146 260.437347,284.484741 258.423737,281.231689 
	C257.541016,279.805634 256.981537,278.242157 256.975861,276.138947 
z"/>
</svg>